# xmcd CD database file
#
# Track frame offsets:
#	150
#	17602
#	30340
#	40663
#
# Disc length: 894 seconds
#
# Revision: 0
# Processed by: cddbd v1.5.2PL0 Copyright (c) Steve Scherf et al.
# Submitted via: CDex 1.70beta2
#
DISCID=1e037c04
DTITLE=ROOT! - Get up yourself
DYEAR=2008
DGENRE=Country
TTITLE0=Get up yourself
TTITLE1=DC Root's failure
TTITLE2=I wear my prescription sunglasses at night
TTITLE3=Get up yourself, part 2
EXTD=YEAR: 2008
EXTT0=
EXTT1=
EXTT2=
EXTT3=
PLAYORDER=
